#!OML:ASF E:\Steps\Project 1\Capture day 1\Session 2\Subject.ASF
:FULLY-SPECIFIED
:DEGREES
365
root 12.2625 17.1182 7.81967 -152.081 -1.03377 176.49
lowerback -28.7101 -3.62489 -8.26752
upperback -2.47522 -2.94809 -0.473155
thorax 12.6692 -2.13512 2.77827
lowerneck -2.53748 -1.52328 -0.0468841
upperneck 4.62551 -1.97611 -0.465344
head 1.86342 -0.982249 -0.183814
rclavicle 1.68967e-014 2.38542e-015
rhumerus -42.7369 -11.1779 -81.6962
rradius 29.986
rwrist -3.66028
rhand -2.73323 -53.1917
rfingers 7.12502
rthumb 22.97 -81.8431
lclavicle 1.68967e-014 2.38542e-015
lhumerus -33.5983 4.632 76.4871
lradius 20.3863
lwrist -5.38851
lhand -20.8535 -10.1294
lfingers 7.12502
lthumb 5.5158 19.7788
rfemur -23.2598 5.54238 20.5275
rtibia 10.3135
rfoot -23.371 -4.61776
rtoes -15.7099
lfemur -23.02 -7.30898 -23.1086
ltibia 7.97583
lfoot -8.32748 -3.25071
ltoes -16.358
366
root 12.2633 17.1169 7.81267 -152.067 -1.0608 176.504
lowerback -28.5756 -3.52667 -8.24705
upperback -2.72874 -2.88742 -0.539265
thorax 12.3072 -2.10833 2.72999
lowerneck -2.4944 -1.53906 0.11851
upperneck 4.8245 -1.99513 -0.540043
head 1.91781 -0.988388 -0.23635
rclavicle 5.26779e-015 -8.74653e-015
rhumerus -42.6052 -11.9287 -81.2999
rradius 29.6251
rwrist -3.1631
rhand -2.73971 -53.46
rfingers 7.12502
rthumb 22.9638 -82.1122
lclavicle 5.26779e-015 -8.74653e-015
lhumerus -33.5362 4.31525 76.7439
lradius 20.0266
lwrist -5.68924
lhand -20.596 -10.1245
lfingers 7.12502
lthumb 5.76444 19.7771
rfemur -23.254 5.62117 20.5272
rtibia 10.3074
rfoot -23.3268 -4.64491
rtoes -15.3381
lfemur -23.0447 -7.46328 -23.0469
ltibia 8.05783
lfoot -8.39262 -3.12835
ltoes -15.4309
367
root 12.2641 17.1168 7.80455 -152.146 -1.13995 176.545
lowerback -28.4462 -3.45614 -8.14324
upperback -3.2084 -2.86227 -0.683251
thorax 12.4695 -2.10519 2.71844
lowerneck -2.52416 -1.52798 0.200701
upperneck 4.78962 -1.98565 -0.537592
head 1.91104 -0.98274 -0.249284
rclavicle -7.35503e-015 1.39149e-014
rhumerus -42.323 -12.6196 -80.9719
rradius 29.3637
rwrist -2.67112
rhand -2.90779 -53.5669
rfingers 7.12502
rthumb 22.8025 -82.2391
lclavicle -7.35503e-015 1.39149e-014
lhumerus -33.2584 4.13043 77.0015
lradius 19.6711
lwrist -5.8489
lhand -20.3318 -9.77952
lfingers 7.12502
lthumb 6.01946 20.115
rfemur -23.1103 5.61906 20.62
rtibia 10.2883
rfoot -23.3117 -4.75684
rtoes -15.9466
lfemur -22.9542 -7.57476 -22.9682
ltibia 8.11954
lfoot -8.53118 -3.03757
ltoes -15.7518
368
root 12.2652 17.1161 7.7933 -152.336 -1.17348 176.547
lowerback -28.6425 -3.51323 -8.17495
upperback -2.71382 -2.88231 -0.556681
thorax 12.3506 -2.10308 2.67135
lowerneck -2.53856 -1.35936 -0.0588278
upperneck 4.28337 -1.77414 -0.270395
head 1.75533 -0.880396 -0.114357
rclavicle 1.2424e-015 4.81059e-014
rhumerus -41.7423 -12.873 -80.8367
rradius 29.0892
rwrist -2.41587
rhand -3.21654 -53.4662
rfingers 7.12502
rthumb 22.5061 -82.1746
lclavicle 1.2424e-015 4.81059e-014
lhumerus -32.8765 4.13407 77.3709
lradius 19.45
lwrist -5.94499
lhand -20.2492 -9.60178
lfingers 7.12502
lthumb 6.09919 20.2904
rfemur -22.7881 5.62538 20.6622
rtibia 10.1848
rfoot -23.2802 -4.88524
rtoes -16.4839
lfemur -22.709 -7.53358 -22.9959
ltibia 8.12421
lfoot -8.60994 -3.05264
ltoes -17.1214
369
root 12.2661 17.1142 7.78295 -152.494 -1.1532 176.525
lowerback -28.7222 -3.54111 -8.2206
upperback -2.68531 -2.89604 -0.527766
thorax 12.4231 -2.11333 2.71703
lowerneck -2.45614 -1.17005 -0.340007
upperneck 3.79198 -1.52526 -0.107843
head 1.58671 -0.760132 -0.00833334
rclavicle -5.31749e-015 -5.56597e-015
rhumerus -41.2636 -13.105 -80.6508
rradius 28.7243
rwrist -2.27565
rhand -3.69125 -53.0951
rfingers 7.12502
rthumb 22.0504 -81.858
lclavicle -5.31749e-015 -5.56597e-015
lhumerus -32.6045 4.30072 77.6533
lradius 19.1604
lwrist -6.44462
lhand -20.1761 -9.68374
lfingers 7.12502
lthumb 6.16978 20.2064
rfemur -22.4996 5.69049 20.6191
rtibia 10.0186
rfoot -23.1938 -4.86945
rtoes -15.8652
lfemur -22.5009 -7.451 -23.0566
ltibia 8.13383
lfoot -8.53472 -3.12238
ltoes -17.1669
370
root 12.2654 17.113 7.77365 -152.615 -1.16457 176.467
lowerback -28.7454 -3.4907 -8.2192
upperback -2.74519 -2.83864 -0.585887
thorax 12.3547 -2.08881 2.67524
lowerneck -2.37195 -1.11822 -0.44065
upperneck 3.47097 -1.45683 -0.109291
head 1.47005 -0.728688 0.0112136
rclavicle -2.33572e-014 -1.70955e-014
rhumerus -40.9683 -13.6639 -80.321
rradius 28.3777
rwrist -1.79559
rhand -3.80604 -52.8189
rfingers 7.12502
rthumb 21.9402 -81.5947
lclavicle -2.33572e-014 -1.70955e-014
lhumerus -32.4165 4.13366 77.9518
lradius 18.8934
lwrist -6.92028
lhand -20.1776 -9.73655
lfingers 7.12502
lthumb 6.16831 20.1537
rfemur -22.2828 5.58945 20.5695
rtibia 9.90826
rfoot -23.1554 -4.71757
rtoes -15.5028
lfemur -22.3284 -7.41 -23.172
ltibia 8.13897
lfoot -8.444 -3.14146
ltoes -18.0782
371
root 12.264 17.1129 7.76383 -152.722 -1.27984 176.434
lowerback -28.8523 -3.4547 -8.17588
upperback -2.709 -2.78394 -0.653709
thorax 12.4324 -2.06279 2.59413
lowerneck -2.389 -1.08357 -0.442471
upperneck 3.28464 -1.41322 -0.114081
head 1.41359 -0.707913 0.0114531
rclavicle -3.42904e-015 1.98785e-014
rhumerus -40.4569 -14.4727 -79.9761
rradius 27.8538
rwrist -1.08631
rhand -3.76378 -52.7987
rfingers 7.12502
rthumb 21.9808 -81.5698
lclavicle -3.42904e-015 1.98785e-014
lhumerus -32.1368 3.84065 78.3137
lradius 18.8093
lwrist -7.24833
lhand -20.161 -9.86977
lfingers 7.12502
lthumb 6.18435 20.02
rfemur -22.1016 5.36718 20.6102
rtibia 9.88582
rfoot -23.1809 -4.64613
rtoes -15.9383
lfemur -22.2046 -7.37864 -23.258
ltibia 8.19468
lfoot -8.40641 -3.18256
ltoes -19.7948
372
root 12.2636 17.1125 7.75436 -152.74 -1.39342 176.492
lowerback -29.104 -3.40572 -8.06308
upperback -2.66403 -2.72552 -0.703589
thorax 12.5837 -2.03502 2.48975
lowerneck -2.57423 -1.12679 -0.0928962
upperneck 3.47736 -1.46967 -0.447273
head 1.50214 -0.737579 -0.153079
rclavicle -4.07509e-015 2.62396e-014
rhumerus -39.839 -15.2378 -79.7509
rradius 27.2844
rwrist -0.528993
rhand -3.87611 -52.7331
rfingers 7.12502
rthumb 21.8729 -81.5168
lclavicle -4.07509e-015 2.62396e-014
lhumerus -31.777 3.71934 78.6043
lradius 18.7073
lwrist -7.69516
lhand -20.3374 -9.8451
lfingers 7.12502
lthumb 6.01409 20.0495
rfemur -22.0497 5.23029 20.73
rtibia 9.9107
rfoot -23.2216 -4.6284
rtoes -16.0627
lfemur -22.2115 -7.32334 -23.2056
ltibia 8.28534
lfoot -8.38038 -3.27569
ltoes -20.1615
373
root 12.2627 17.1111 7.74516 -152.725 -1.47804 176.518
lowerback -29.3264 -3.32407 -7.96276
upperback -2.69876 -2.63928 -0.788505
thorax 12.6259 -1.99669 2.36771
lowerneck -2.72607 -1.18282 0.258099
upperneck 3.63589 -1.54778 -0.695729
head 1.5749 -0.776642 -0.292586
rclavicle -1.0635e-014 1.59028e-015
rhumerus -39.5071 -15.7431 -79.647
rradius 27.1222
rwrist -0.227619
rhand -3.70949 -52.9535
rfingers 7.12502
rthumb 22.0329 -81.7185
lclavicle -1.0635e-014 1.59028e-015
lhumerus -31.5183 3.32515 78.9606
lradius 18.5738
lwrist -7.92439
lhand -20.5989 -9.91367
lfingers 7.12502
lthumb 5.76164 19.988
rfemur -22.0141 5.057 20.8011
rtibia 9.87578
rfoot -23.2179 -4.53982
rtoes -16.248
lfemur -22.2298 -7.32376 -23.1737
ltibia 8.3539
lfoot -8.40361 -3.33895
ltoes -20.5526
